<?xml version="1.0" standalone="no"?>
<!DOCTYPE svg PUBLIC "-//W3C//DTD SVG 20010904//EN"
 "http://www.w3.org/TR/2001/REC-SVG-20010904/DTD/svg10.dtd">
<svg version="1.0" xmlns="http://www.w3.org/2000/svg"
 width="312.000000pt" height="298.000000pt" viewBox="0 0 312.000000 298.000000"
 preserveAspectRatio="xMidYMid meet">

<g transform="translate(0.000000,298.000000) scale(0.100000,-0.100000)"
fill="#ffffff" stroke="none">
<path d="M1360 2610 c0 -5 -18 -10 -40 -10 -22 0 -40 -4 -40 -10 0 -5 -13 -10
-30 -10 -16 0 -30 -4 -30 -10 0 -5 -9 -10 -20 -10 -11 0 -20 -4 -20 -10 0 -5
-9 -10 -20 -10 -11 0 -20 -4 -20 -10 0 -5 -7 -10 -16 -10 -9 0 -29 -13 -44
-30 -15 -16 -33 -30 -39 -30 -16 0 -141 -127 -141 -143 0 -7 -9 -19 -20 -27
-11 -8 -20 -21 -20 -30 0 -9 -9 -22 -20 -30 -11 -8 -20 -22 -20 -32 0 -10 -4
-18 -10 -18 -5 0 -10 -13 -10 -30 0 -16 -4 -30 -10 -30 -5 0 -10 -9 -10 -20 0
-16 -7 -20 -35 -20 -27 0 -44 -8 -70 -35 -19 -19 -35 -41 -35 -50 0 -8 -4 -15
-10 -15 -5 0 -10 -13 -10 -30 0 -16 -4 -30 -10 -30 -6 0 -10 -37 -10 -90 0
-53 4 -90 10 -90 6 0 10 -13 10 -30 0 -16 5 -30 10 -30 6 0 10 -7 10 -15 0
-20 45 -65 65 -65 8 0 15 -4 15 -10 0 -5 18 -10 40 -10 22 0 40 5 40 10 0 6 7
10 16 10 8 0 22 6 30 14 16 17 19 46 4 46 -5 0 -10 23 -10 50 0 28 -4 50 -10
50 -6 0 -10 33 -10 80 0 47 4 80 10 80 6 0 10 23 10 50 0 28 5 50 10 50 6 0
10 14 10 30 0 17 5 30 10 30 6 0 10 9 10 20 0 11 5 20 10 20 6 0 10 9 10 20 0
11 5 20 10 20 6 0 10 9 10 20 0 11 5 20 10 20 6 0 10 7 10 15 0 20 185 205
205 205 8 0 15 5 15 10 0 6 8 10 18 10 10 0 24 9 32 20 8 12 26 20 42 20 15 0
28 5 28 10 0 6 14 10 30 10 17 0 30 5 30 10 0 6 18 10 40 10 22 0 40 5 40 10
0 6 43 10 110 10 67 0 110 -4 110 -10 0 -5 18 -10 40 -10 22 0 40 -4 40 -10 0
-5 14 -10 30 -10 17 0 30 -4 30 -10 0 -5 13 -10 28 -10 16 0 34 -8 42 -20 8
-11 22 -20 32 -20 10 0 18 -4 18 -10 0 -5 7 -10 15 -10 20 0 205 -185 205
-205 0 -8 5 -15 10 -15 6 0 10 -9 10 -20 0 -11 5 -20 10 -20 6 0 10 -9 10 -20
0 -11 5 -20 10 -20 6 0 10 -9 10 -20 0 -11 5 -20 10 -20 6 0 10 -13 10 -30 0
-16 5 -30 10 -30 6 0 10 -27 10 -60 0 -33 4 -60 10 -60 6 0 10 -33 10 -80 0
-47 -4 -80 -10 -80 -5 0 -10 -22 -10 -50 0 -27 -4 -50 -10 -50 -5 0 -10 -7
-10 -15 0 -19 -84 -105 -103 -105 -7 0 -19 -9 -27 -20 -8 -11 -22 -20 -32 -20
-10 0 -18 -4 -18 -10 0 -5 -13 -10 -30 -10 -16 0 -30 -4 -30 -10 0 -6 -27 -10
-60 -10 -33 0 -60 -4 -60 -10 0 -6 -30 -10 -70 -10 -40 0 -70 4 -70 10 0 6
-18 10 -40 10 -39 0 -40 1 -40 36 0 38 -18 64 -44 64 -9 0 -16 5 -16 10 0 6
-13 10 -30 10 -16 0 -30 -4 -30 -10 0 -5 -7 -10 -16 -10 -29 0 -44 -27 -44
-80 0 -69 29 -100 95 -100 25 0 45 5 45 10 0 6 67 10 180 10 113 0 180 4 180
10 0 6 18 10 40 10 22 0 40 5 40 10 0 6 9 10 20 10 11 0 20 5 20 10 0 6 9 10
20 10 11 0 20 5 20 10 0 6 7 10 16 10 8 0 42 27 74 60 55 56 62 60 104 60 26
0 46 5 46 10 0 6 7 10 15 10 9 0 27 11 40 25 14 13 25 31 25 40 0 8 5 15 10
15 6 0 10 14 10 30 0 17 5 30 10 30 6 0 10 37 10 90 0 53 -4 90 -10 90 -5 0
-10 14 -10 30 0 17 -4 30 -10 30 -5 0 -10 7 -10 15 0 9 -16 31 -35 50 -26 27
-43 35 -70 35 -28 0 -35 4 -35 20 0 11 -4 20 -10 20 -5 0 -10 14 -10 30 0 17
-4 30 -10 30 -5 0 -10 8 -10 18 0 10 -9 24 -20 32 -11 8 -20 21 -20 30 0 9 -9
22 -20 30 -11 8 -20 20 -20 27 0 17 -126 143 -143 143 -7 0 -19 9 -27 20 -8
11 -21 20 -30 20 -9 0 -22 9 -30 20 -8 11 -22 20 -32 20 -10 0 -18 5 -18 10 0
6 -9 10 -20 10 -11 0 -20 5 -20 10 0 6 -13 10 -30 10 -16 0 -30 5 -30 10 0 6
-18 10 -40 10 -22 0 -40 5 -40 10 0 6 -63 10 -170 10 -107 0 -170 -4 -170 -10z"/>
<path d="M1400 2410 c0 -5 -18 -10 -40 -10 -22 0 -40 -4 -40 -10 0 -5 -9 -10
-20 -10 -11 0 -20 -4 -20 -10 0 -5 -9 -10 -20 -10 -11 0 -20 -4 -20 -10 0 -5
-7 -10 -16 -10 -9 0 -29 -13 -44 -30 -15 -16 -33 -30 -40 -30 -15 0 -40 -25
-40 -40 0 -7 -13 -25 -30 -40 -16 -15 -30 -34 -30 -42 0 -7 -9 -20 -20 -28
-11 -8 -20 -22 -20 -32 0 -10 -4 -18 -10 -18 -5 0 -10 -13 -10 -30 0 -16 -4
-30 -10 -30 -5 0 -10 -13 -10 -30 0 -16 -4 -30 -10 -30 -6 0 -10 -47 -10 -120
0 -73 4 -120 10 -120 6 0 10 -18 10 -40 0 -22 5 -40 10 -40 6 0 10 -9 10 -20
0 -11 5 -20 10 -20 6 0 10 -13 10 -28 0 -16 8 -34 20 -42 11 -8 20 -20 20 -27
0 -19 146 -163 165 -163 8 0 15 -4 15 -10 0 -5 9 -10 20 -10 11 0 20 -4 20
-10 0 -5 9 -10 20 -10 11 0 20 -4 20 -10 0 -5 9 -10 20 -10 11 0 20 -4 20 -10
0 -5 23 -10 50 -10 28 0 50 -4 50 -10 0 -6 37 -10 90 -10 53 0 90 4 90 10 0 6
23 10 50 10 28 0 50 5 50 10 0 6 9 10 20 10 11 0 20 5 20 10 0 6 9 10 20 10
11 0 20 5 20 10 0 6 -43 10 -110 10 -67 0 -110 -4 -110 -10 0 -5 -22 -10 -50
-10 -27 0 -50 5 -50 10 0 6 -7 10 -15 10 -9 0 -31 16 -50 35 -33 33 -35 38
-35 105 0 67 2 72 35 105 19 19 41 35 50 35 8 0 15 5 15 10 0 6 23 10 50 10
28 0 50 -4 50 -10 0 -5 7 -10 15 -10 20 0 85 -65 85 -85 0 -8 9 -15 20 -15 11
0 20 -4 20 -10 0 -6 27 -10 60 -10 33 0 60 4 60 10 0 6 23 10 50 10 28 0 50 5
50 10 0 6 14 10 30 10 17 0 30 5 30 10 0 6 7 10 16 10 20 0 44 24 44 44 0 9 5
16 10 16 6 0 10 9 10 20 0 11 5 20 10 20 6 0 10 18 10 40 0 22 5 40 10 40 6 0
10 47 10 120 0 73 -4 120 -10 120 -5 0 -10 14 -10 30 0 17 -4 30 -10 30 -5 0
-10 14 -10 30 0 17 -4 30 -10 30 -5 0 -10 8 -10 18 0 10 -9 24 -20 32 -11 8
-20 21 -20 28 0 8 -13 27 -30 42 -16 15 -30 35 -30 44 0 9 -7 16 -16 16 -8 0
-33 18 -54 40 -21 22 -46 40 -54 40 -9 0 -16 5 -16 10 0 6 -9 10 -20 10 -11 0
-20 5 -20 10 0 6 -9 10 -20 10 -11 0 -20 5 -20 10 0 6 -18 10 -40 10 -22 0
-40 5 -40 10 0 6 -50 10 -130 10 -80 0 -130 -4 -130 -10z"/>
<path d="M1040 1270 c0 -5 -8 -10 -18 -10 -10 0 -24 -9 -32 -20 -8 -11 -21
-20 -28 -20 -7 0 -31 -18 -52 -40 -21 -22 -43 -40 -50 -40 -14 0 -60 -46 -60
-60 0 -6 -22 -33 -50 -60 -27 -27 -50 -56 -50 -64 0 -9 -4 -16 -10 -16 -5 0
-10 -8 -10 -18 0 -10 -9 -24 -20 -32 -11 -8 -20 -22 -20 -32 0 -10 -4 -18 -10
-18 -5 0 -10 -9 -10 -20 0 -11 -4 -20 -10 -20 -5 0 -10 -13 -10 -30 0 -16 -4
-30 -10 -30 -5 0 -10 -9 -10 -20 0 -11 -4 -20 -10 -20 -5 0 -10 -18 -10 -40 0
-22 -4 -40 -10 -40 -5 0 -10 -18 -10 -40 0 -22 -4 -40 -10 -40 -6 0 -10 -30
-10 -70 l0 -70 1010 0 1010 0 0 70 c0 40 -4 70 -10 70 -5 0 -10 18 -10 40 0
22 -4 40 -10 40 -5 0 -10 18 -10 40 0 22 -4 40 -10 40 -5 0 -10 9 -10 20 0 11
-4 20 -10 20 -5 0 -10 14 -10 30 0 17 -4 30 -10 30 -5 0 -10 9 -10 20 0 11 -4
20 -10 20 -5 0 -10 8 -10 18 0 10 -9 24 -20 32 -11 8 -20 21 -20 30 0 9 -9 22
-20 30 -11 8 -20 21 -20 28 0 8 -13 27 -30 42 -16 15 -30 33 -30 39 0 15 -66
81 -80 81 -7 0 -29 18 -50 40 -21 22 -45 40 -52 40 -7 0 -20 9 -28 20 -8 11
-22 20 -32 20 -10 0 -18 5 -18 10 0 6 -13 10 -30 10 -16 0 -30 -4 -30 -10 0
-5 -8 -10 -18 -10 -10 0 -24 -9 -32 -20 -8 -11 -22 -20 -32 -20 -10 0 -18 -4
-18 -10 0 -5 -9 -10 -20 -10 -11 0 -20 -4 -20 -10 0 -5 -13 -10 -30 -10 -16 0
-30 -4 -30 -10 0 -5 -13 -10 -30 -10 -16 0 -30 -4 -30 -10 0 -6 -30 -10 -70
-10 -40 0 -70 -4 -70 -10 0 -5 -13 -10 -30 -10 -16 0 -30 5 -30 10 0 6 -30 10
-70 10 -40 0 -70 4 -70 10 0 6 -13 10 -30 10 -16 0 -30 5 -30 10 0 6 -13 10
-30 10 -16 0 -30 5 -30 10 0 6 -9 10 -20 10 -11 0 -20 5 -20 10 0 6 -8 10 -18
10 -10 0 -24 9 -32 20 -8 11 -22 20 -32 20 -10 0 -18 5 -18 10 0 6 -13 10 -30
10 -16 0 -30 -4 -30 -10z"/>
</g>
</svg>
