<?xml version="1.0" standalone="no"?>
<!DOCTYPE svg PUBLIC "-//W3C//DTD SVG 20010904//EN"
 "http://www.w3.org/TR/2001/REC-SVG-20010904/DTD/svg10.dtd">
<svg version="1.0" xmlns="http://www.w3.org/2000/svg"
 width="208.000000pt" height="200.000000pt" viewBox="0 0 208.000000 200.000000"
 preserveAspectRatio="xMidYMid meet">

<g transform="translate(0.000000,200.000000) scale(0.100000,-0.100000)"
fill="#000000" stroke="none">
<path d="M890 1961 c-135 -44 -253 -137 -312 -247 -176 -327 77 -724 462 -724
333 0 585 306 505 615 -44 169 -182 305 -364 359 -74 22 -219 20 -291 -3z"/>
<path d="M810 724 c-206 -31 -442 -104 -575 -179 -80 -44 -168 -124 -203 -184
-26 -44 -27 -53 -30 -204 l-4 -157 1042 0 1042 0 -4 157 c-4 188 -11 207 -114
302 -219 200 -759 324 -1154 265z"/>
</g>
</svg>
