<?xml version="1.0" standalone="no"?>
<!DOCTYPE svg PUBLIC "-//W3C//DTD SVG 20010904//EN"
 "http://www.w3.org/TR/2001/REC-SVG-20010904/DTD/svg10.dtd">
<svg version="1.0" xmlns="http://www.w3.org/2000/svg"
 width="180.000000pt" height="128.000000pt" viewBox="0 0 180.000000 128.000000"
 preserveAspectRatio="xMidYMid meet">

<g transform="translate(0.000000,128.000000) scale(0.100000,-0.100000)"
fill="#ffffff" stroke="none">
<path d="M1287 1174 c-159 -53 -286 -98 -284 -101 10 -9 576 174 596 193 15
14 -58 -8 -312 -92z"/>
<path d="M1225 1248 c-221 -77 -451 -162 -630 -231 -337 -132 -571 -226 -563
-226 12 -1 323 104 523 176 260 94 695 270 714 289 7 7 -12 3 -44 -8z"/>
<path d="M645 1162 c-138 -58 -435 -196 -430 -200 5 -5 374 152 465 199 96 49
80 49 -35 1z"/>
<path d="M1166 1018 c-43 -15 -55 -23 -45 -30 10 -7 9 -8 -5 -4 -23 8 -141
-30 -178 -57 -19 -14 -34 -18 -55 -13 -22 5 -25 4 -13 -4 11 -9 7 -10 -20 -5
-26 5 -31 4 -20 -4 9 -6 10 -11 3 -11 -6 0 -20 -3 -30 -6 -15 -5 -16 -4 -3 6
13 10 12 11 -3 6 -11 -3 -30 -9 -44 -12 -19 -5 -22 -9 -11 -16 10 -7 8 -8 -5
-4 -27 9 -157 -33 -181 -59 -13 -13 -63 -33 -136 -54 -63 -18 -125 -42 -137
-53 -11 -11 -45 -26 -75 -33 -29 -7 -44 -13 -33 -14 11 0 37 3 58 8 28 7 37 6
34 -2 -2 -7 -35 -20 -73 -29 l-69 -17 68 5 c42 4 67 2 67 -4 0 -6 -8 -13 -17
-15 -17 -4 -17 -5 0 -6 19 -1 24 -21 5 -21 -9 0 -8 -3 2 -10 24 -15 4 -24 -93
-42 l-92 -17 94 4 c97 5 116 -4 33 -16 l-47 -6 53 -2 c53 -1 74 -20 25 -22
l-28 -1 30 -8 c56 -14 152 -11 165 5 7 8 17 15 23 15 6 0 1 -7 -11 -16 -12 -8
-22 -23 -22 -32 0 -13 -2 -14 -9 -4 -7 11 -36 12 -152 6 l-144 -8 105 -8 c114
-9 148 -16 85 -18 -39 -1 -40 -1 -15 -14 22 -13 19 -14 -55 -21 -119 -9 -121
-13 -10 -14 55 -1 116 -4 137 -7 30 -5 37 -3 40 12 5 18 5 18 12 -1 4 -11 13
-32 21 -47 13 -27 13 -28 -10 -28 -13 0 -27 5 -30 10 -4 6 -57 10 -128 9 -67
0 -117 -2 -112 -4 16 -6 500 -56 1195 -123 41 -4 95 -4 120 0 25 3 86 7 135 8
50 1 101 6 115 10 23 8 23 8 -10 11 -21 1 -7 5 35 8 l70 6 -120 9 c-66 4 -123
10 -128 13 -4 2 2 16 14 31 20 26 26 27 127 32 102 5 107 6 121 31 11 20 12
39 5 89 l-9 63 -18 -38 c-18 -37 -18 -38 3 -32 11 3 20 1 20 -3 0 -15 -111
-23 -229 -16 -151 8 -170 14 -202 60 -29 44 -239 176 -278 176 -13 0 -135 -14
-269 -30 -135 -17 -252 -29 -261 -28 -9 2 45 11 119 21 74 9 200 26 279 37
164 22 141 27 294 -68 49 -29 91 -52 93 -49 3 3 -1 72 -8 153 -12 135 -13 143
-18 84 -6 -73 -14 -70 -25 8 -4 28 -11 52 -16 52 -5 0 -9 7 -9 15 0 19 50 32
60 15 4 -7 14 -80 21 -162 l13 -150 56 -28 c32 -16 72 -41 90 -57 30 -24 44
-28 112 -32 111 -5 123 0 154 61 26 51 26 53 15 155 -7 57 -15 111 -18 120 -5
13 -2 15 15 11 17 -5 22 -2 22 13 0 11 -9 21 -23 24 -17 5 -28 20 -41 55 -10
27 -32 63 -48 79 -30 29 -131 71 -171 71 -10 0 -15 5 -12 11 5 7 -6 8 -32 5
-24 -4 -31 -3 -19 2 15 7 7 11 -39 20 -86 17 -181 14 -249 -10z m124 2 c-36
-3 -82 -12 -103 -19 -21 -7 -41 -11 -44 -8 -11 12 94 36 152 35 l60 -1 -65 -7z
m128 -7 c-10 -2 -28 -2 -40 0 -13 2 -5 4 17 4 22 1 32 -1 23 -4z m120 -44 c45
-10 96 -26 112 -34 56 -29 100 -144 114 -300 5 -57 5 -58 -4 -15 -6 25 -17 82
-26 127 -17 87 -23 96 -66 107 -26 6 -27 4 -23 -21 9 -48 35 -218 35 -225 0
-14 -110 -9 -115 5 -2 6 -11 68 -19 136 -9 68 -17 126 -20 128 -2 2 -30 8 -63
13 -49 7 -60 5 -71 -8 -11 -15 -10 -17 15 -20 37 -5 53 -19 53 -48 0 -33 -13
-30 -26 4 -16 41 -77 48 -197 22 -93 -20 -114 -23 -106 -16 8 8 192 46 221 46
30 0 35 9 16 29 -16 16 81 8 226 -20 55 -10 102 -16 105 -14 2 3 -8 18 -23 34
-35 37 -112 57 -279 76 -33 3 -38 1 -32 -13 5 -15 4 -15 -7 -2 -7 8 -20 20
-28 28 -13 11 -4 12 55 7 39 -4 107 -15 153 -26z m-230 9 c20 -20 13 -32 -7
-14 -18 17 -33 13 -321 -69 -166 -48 -303 -85 -306 -83 -2 3 40 17 93 33 54
16 184 54 288 86 201 60 234 66 253 47z m-11 -30 c6 -7 13 -25 15 -40 5 -26 3
-28 -51 -38 -31 -6 -71 -16 -90 -20 -19 -5 -37 -8 -39 -5 -2 2 0 21 5 41 8 35
12 38 68 55 76 21 81 22 92 7z m-197 -43 c0 -19 -23 -105 -28 -105 -4 0 -63
-13 -132 -29 -69 -16 -126 -28 -127 -27 -2 1 1 22 5 47 l8 44 129 37 c139 39
145 40 145 33z m315 -130 c6 -47 10 -55 29 -56 17 -1 17 -2 4 -6 -10 -2 -18
-12 -19 -21 0 -14 -2 -13 -9 3 -7 15 -9 8 -11 -30 l-1 -50 -9 60 c-20 148 -20
155 -5 155 10 0 17 -17 21 -55z m-636 8 c-5 -21 -9 -41 -9 -45 0 -6 -87 -28
-110 -28 -12 0 -13 50 -1 68 8 13 81 40 112 41 14 1 16 -5 8 -36z m469 -65
l-2 -103 -3 89 -4 88 -31 -6 c-17 -3 -36 -6 -44 -6 -7 0 -14 -14 -16 -32 -3
-28 -5 -30 -13 -14 -14 31 7 70 40 77 78 17 75 21 73 -93z m-603 82 c-27 -12
-43 -12 -25 0 8 5 22 9 30 9 10 0 8 -3 -5 -9z m882 -37 c-3 -10 -5 -2 -5 17 0
19 2 27 5 18 2 -10 2 -26 0 -35z m-900 0 c-3 -10 -8 -29 -11 -43 -4 -22 -14
-28 -56 -36 l-50 -11 0 33 c0 36 7 43 60 60 51 17 62 16 57 -3z m730 -55 c-2
-13 -4 -5 -4 17 -1 22 1 32 4 23 2 -10 2 -28 0 -40z m-872 0 c-9 -42 -12 -45
-57 -53 -40 -8 -44 -3 -32 43 4 14 18 25 38 31 54 16 58 14 51 -21z m1052 -25
c-3 -10 -5 -2 -5 17 0 19 2 27 5 18 2 -10 2 -26 0 -35z m-1166 -5 c-5 -26 -14
-35 -41 -44 -31 -11 -35 -10 -38 7 -5 27 15 57 40 62 45 9 46 8 39 -25z m626
-4 c-3 -3 -12 -4 -19 -1 -8 3 -5 6 6 6 11 1 17 -2 13 -5z m-54 -11 c-7 -2 -21
-2 -30 0 -10 3 -4 5 12 5 17 0 24 -2 18 -5z m424 -35 c-3 -7 -5 -2 -5 12 0 14
2 19 5 13 2 -7 2 -19 0 -25z m42 -40 c14 -16 22 -28 18 -28 -10 0 -47 42 -47
54 0 5 1 7 3 5 1 -2 13 -16 26 -31z m-896 -35 c-7 -2 -19 -2 -25 0 -7 3 -2 5
12 5 14 0 19 -2 13 -5z m642 -5 c-16 -5 -82 -11 -145 -13 -63 -2 -108 -2 -100
1 19 6 183 21 235 22 40 0 40 0 10 -10z m-70 -58 c17 -4 22 -8 13 -9 -15 -1
-16 -4 -2 -36 7 -19 14 -45 13 -57 0 -14 -6 -4 -15 24 -9 29 -24 54 -39 64
-23 15 -27 15 -50 0 -14 -9 -25 -22 -25 -28 0 -6 10 -3 23 8 19 17 19 15 -3
-9 -35 -40 -41 -141 -11 -192 l20 -35 -30 0 c-23 0 -30 4 -26 14 7 19 -13 26
-76 26 -73 0 -101 9 -86 26 8 9 34 14 79 14 l68 0 11 63 c6 34 14 72 17 85 5
16 2 22 -9 22 -8 0 -17 -4 -19 -9 -1 -4 -68 -11 -148 -14 -92 -3 -130 -2 -105
3 22 5 65 10 95 11 45 1 49 3 25 8 -21 5 4 9 79 14 60 4 116 12 125 17 9 5 23
7 31 3 8 -3 29 -9 45 -13z m588 -27 c-24 -2 -62 -2 -85 0 -24 2 -5 4 42 4 47
0 66 -2 43 -4z m-1238 -33 c3 -6 -1 -7 -9 -4 -18 7 -21 14 -7 14 6 0 13 -4 16
-10z m1238 3 c-18 -2 -48 -2 -65 0 -18 2 -4 4 32 4 36 0 50 -2 33 -4z m-609
-59 c4 -14 2 -32 -3 -42 -10 -16 -10 -16 -11 0 0 26 -21 33 -38 12 -13 -18
-14 -16 -8 16 10 54 48 63 60 14z m-634 -7 c0 -16 -3 -18 -9 -8 -7 11 -11 10
-20 -5 -13 -24 -14 -13 -1 21 11 30 30 25 30 -8z m490 18 c0 -13 -31 -15 -219
-15 -200 0 -243 5 -224 24 3 3 105 6 225 6 187 0 218 -2 218 -15z m520 -35 c0
-5 -4 -10 -10 -10 -5 0 -10 5 -10 10 0 6 5 10 10 10 6 0 10 -4 10 -10z m250 0
c0 -6 -27 -10 -60 -10 -33 0 -60 4 -60 10 0 6 27 10 60 10 33 0 60 -4 60 -10z
m80 0 c0 -5 -4 -10 -10 -10 -5 0 -10 5 -10 10 0 6 5 10 10 10 6 0 10 -4 10
-10z m-746 -70 c10 -13 9 -13 -6 -1 -10 7 -18 21 -17 30 0 13 1 14 6 1 3 -8
11 -22 17 -30z m619 33 c-40 -2 -107 -2 -150 0 -43 1 -10 3 72 3 83 0 118 -2
78 -3z m-968 -23 c18 -19 17 -20 -7 -20 -14 0 -52 3 -86 6 -45 5 -59 10 -55
20 4 10 24 14 68 14 49 0 66 -4 80 -20z m690 -30 l16 -31 -108 7 c-59 4 -109
7 -110 8 -1 1 0 12 4 24 5 21 11 22 94 22 88 0 88 0 104 -30z"/>
<path d="M1552 855 c-1 -16 3 -48 7 -70 8 -35 9 -36 9 -10 1 17 -3 48 -7 70
-8 35 -9 36 -9 10z"/>
<path d="M1582 855 c0 -11 4 -33 8 -50 7 -27 8 -27 8 -5 0 14 -4 36 -8 50 -6
20 -8 21 -8 5z"/>
<path d="M337 963 c-75 -31 -135 -58 -133 -60 4 -5 226 81 266 103 53 28 -1
11 -133 -43z"/>
<path d="M880 965 c-19 -7 -28 -13 -20 -13 8 0 31 6 50 13 19 7 28 13 20 13
-8 0 -31 -6 -50 -13z"/>
<path d="M795 940 c-13 -5 -14 -9 -5 -9 8 0 24 4 35 9 13 5 14 9 5 9 -8 0 -24
-4 -35 -9z"/>
<path d="M425 866 c-149 -40 -360 -109 -346 -114 21 -7 491 130 491 144 0 8
-24 3 -145 -30z"/>
<path d="M157 687 c-59 -16 -105 -32 -103 -35 9 -8 211 41 226 55 21 19 5 16
-123 -20z"/>
<path d="M98 603 c7 -3 16 -2 19 1 4 3 -2 6 -13 5 -11 0 -14 -3 -6 -6z"/>
<path d="M1360 480 c0 -6 7 -24 15 -39 11 -22 24 -30 56 -35 48 -8 57 -3 39
20 -19 22 -110 67 -110 54z m62 -45 c0 -5 -5 -11 -11 -13 -6 -2 -11 4 -11 13
0 9 5 15 11 13 6 -2 11 -8 11 -13z"/>
<path d="M158 213 c6 -2 18 -2 25 0 6 3 1 5 -13 5 -14 0 -19 -2 -12 -5z"/>
<path d="M305 195 c50 -7 124 -16 165 -19 l75 -5 -85 14 c-47 8 -121 16 -165
19 l-80 5 90 -14z"/>
<path d="M830 165 c58 -7 152 -16 210 -19 l105 -5 -100 13 c-55 8 -149 17
-210 20 l-110 5 105 -14z"/>
<path d="M135 164 c56 -22 1027 -156 1110 -153 30 1 30 1 -5 9 -245 52 -1181
174 -1105 144z"/>
<path d="M1168 133 c7 -3 16 -2 19 1 4 3 -2 6 -13 5 -11 0 -14 -3 -6 -6z"/>
<path d="M333 93 c9 -2 23 -2 30 0 6 3 -1 5 -18 5 -16 0 -22 -2 -12 -5z"/>
<path d="M385 85 c10 -4 283 -49 370 -61 28 -3 48 -4 45 -1 -7 7 -366 67 -398
66 -15 0 -22 -2 -17 -4z"/>
<path d="M828 13 c7 -3 16 -2 19 1 4 3 -2 6 -13 5 -11 0 -14 -3 -6 -6z"/>
</g>
</svg>
