<?xml version="1.0" standalone="no"?>
<!DOCTYPE svg PUBLIC "-//W3C//DTD SVG 20010904//EN"
 "http://www.w3.org/TR/2001/REC-SVG-20010904/DTD/svg10.dtd">
<svg version="1.0" xmlns="http://www.w3.org/2000/svg"
 width="166.000000pt" height="119.000000pt" viewBox="0 0 166.000000 119.000000"
 preserveAspectRatio="xMidYMid meet">

<g transform="translate(0.000000,119.000000) scale(0.100000,-0.100000)"
fill="#000000" stroke="none">
<path d="M965 1020 c-60 -4 -115 -8 -122 -9 -6 0 -19 -8 -27 -17 -13 -12 -16
-40 -16 -139 l0 -124 -35 6 -35 6 0 -72 c0 -69 1 -71 25 -71 20 0 25 5 25 25
0 14 4 25 10 25 6 0 11 -77 12 -197 l3 -197 25 -13 c15 -7 27 -24 30 -40 10
-55 120 -53 120 2 l0 25 169 0 170 0 3 -27 c6 -55 118 -53 118 1 0 16 8 30 23
37 12 7 25 17 29 23 4 6 8 97 9 201 1 105 4 178 6 163 4 -23 9 -28 34 -28 l29
0 0 71 0 71 -35 -4 -35 -4 0 121 c0 159 7 153 -181 165 -155 10 -187 10 -354
0z m335 -90 l0 -41 -152 3 c-152 3 -153 3 -156 26 -7 51 -3 52 158 52 l150 0
0 -40z m155 -250 l0 -155 -36 -3 c-29 -2 -39 2 -52 21 -36 56 -123 59 -174 6
l-30 -30 -159 3 -159 3 -3 145 c-1 79 0 150 2 157 4 11 66 13 308 11 l303 -3
0 -155z m-135 -125 c48 -25 35 -35 -46 -35 -69 0 -75 2 -63 16 28 34 67 41
109 19z m-2 -87 c-4 -10 -49 -14 -171 -16 -144 -2 -167 0 -167 13 0 13 24 15
171 15 132 0 170 -3 167 -12z m0 -50 c-4 -10 -49 -14 -171 -16 -144 -2 -167 0
-167 13 0 13 24 15 171 15 132 0 170 -3 167 -12z m-424 -34 c19 -19 20 -26 4
-42 -31 -31 -75 10 -48 43 16 19 25 19 44 -1z m80 0 c22 -21 3 -56 -27 -52
-25 3 -34 32 -17 53 16 19 25 19 44 -1z m400 -7 c15 -24 -17 -56 -41 -41 -24
15 -26 29 -7 48 19 19 33 17 48 -7z m86 -11 c0 -20 -27 -39 -45 -32 -25 9 -30
37 -10 52 20 15 55 2 55 -20z m-220 -81 c0 -25 -1 -25 -90 -25 -89 0 -90 0
-90 25 0 25 1 25 90 25 89 0 90 0 90 -25z"/>
<path d="M478 749 c-32 -18 -41 -48 -23 -75 35 -53 119 -12 96 48 -13 35 -42
46 -73 27z"/>
<path d="M371 651 c-51 -14 -55 -17 -77 -68 -29 -64 -29 -63 -6 -63 12 0 25
14 37 40 14 30 24 40 42 40 12 0 23 -3 23 -7 0 -16 -53 -180 -68 -208 -8 -16
-32 -53 -53 -81 l-38 -51 25 -13 c29 -16 42 -6 105 81 24 32 46 59 50 59 3 0
14 -9 23 -19 15 -17 17 -30 11 -81 l-7 -62 28 4 c26 3 29 8 41 68 l13 64 -36
53 -36 53 22 55 c12 30 28 55 35 55 7 0 37 -11 68 -24 54 -24 67 -24 67 -1 0
11 -122 87 -136 84 -24 -4 -46 3 -62 19 -16 16 -22 16 -71 3z"/>
<path d="M255 468 l-16 -33 20 25 c20 24 26 40 16 40 -2 0 -12 -15 -20 -32z"/>
<path d="M157 355 c-42 -80 -43 -86 -26 -96 14 -7 19 -6 20 3 1 7 4 2 8 -11 8
-30 29 -39 38 -15 4 11 -1 22 -13 32 -16 13 -16 14 -1 9 13 -5 24 8 52 63 l35
69 -30 16 c-16 8 -31 15 -34 15 -3 0 -25 -38 -49 -85z"/>
<path d="M90 181 c0 -18 13 -19 290 -19 281 -1 290 -1 290 18 0 19 -9 20 -290
20 -278 0 -290 -1 -290 -19z"/>
</g>
</svg>
