<?xml version="1.0" standalone="no"?>
<!DOCTYPE svg PUBLIC "-//W3C//DTD SVG 20010904//EN"
 "http://www.w3.org/TR/2001/REC-SVG-20010904/DTD/svg10.dtd">
<svg version="1.0" xmlns="http://www.w3.org/2000/svg"
 width="128.000000pt" height="128.000000pt" viewBox="0 0 128.000000 128.000000"
 preserveAspectRatio="xMidYMid meet">

<g transform="translate(0.000000,128.000000) scale(0.100000,-0.100000)"
fill="#000000" stroke="none">
<path d="M540 1269 c-380 -55 -626 -458 -505 -825 113 -343 482 -524 822 -404
169 59 323 213 383 382 47 134 49 282 5 414 -100 301 -391 480 -705 433z m541
-419 c26 -25 30 -36 27 -72 -2 -36 -7 -44 -25 -46 -12 -2 -34 -17 -49 -35 -21
-25 -25 -38 -20 -65 6 -40 39 -80 70 -84 17 -2 22 -11 24 -46 3 -36 -1 -47
-27 -72 l-29 -30 -412 0 -412 0 -29 30 c-26 25 -30 36 -27 72 2 35 7 44 24 46
31 4 64 44 70 84 5 27 1 40 -20 65 -14 17 -37 34 -51 37 -22 6 -25 12 -25 47
0 31 7 47 29 70 l29 29 412 0 412 0 29 -30z"/>
<path d="M667 813 c-9 -8 -9 -265 -1 -315 6 -34 10 -38 36 -38 16 0 31 6 34
15 9 21 154 22 154 1 0 -17 31 -29 52 -21 9 4 18 23 22 43 8 48 8 286 0 306
-5 14 -28 16 -148 16 -79 0 -146 -3 -149 -7z m141 -120 l3 -63 -66 0 -65 0 0
58 c0 32 3 62 7 66 4 4 32 6 63 4 l55 -3 3 -62z m132 -3 l0 -60 -60 0 -60 0 0
60 0 60 60 0 60 0 0 -60z m-197 -102 c15 -23 1 -48 -27 -48 -33 0 -46 38 -20
57 21 15 34 13 47 -9z m197 -19 c0 -24 -27 -36 -48 -22 -23 14 -25 29 -7 47
21 20 55 5 55 -25z"/>
<path d="M320 625 c0 -12 15 -15 75 -15 60 0 75 3 75 15 0 12 -15 15 -75 15
-60 0 -75 -3 -75 -15z"/>
<path d="M320 545 l0 -25 125 0 125 0 0 25 0 25 -125 0 -125 0 0 -25z"/>
</g>
</svg>
