<?xml version="1.0" standalone="no"?>
<!DOCTYPE svg PUBLIC "-//W3C//DTD SVG 20010904//EN"
 "http://www.w3.org/TR/2001/REC-SVG-20010904/DTD/svg10.dtd">
<svg version="1.0" xmlns="http://www.w3.org/2000/svg"
 width="64.000000pt" height="65.000000pt" viewBox="0 0 64.000000 65.000000"
 preserveAspectRatio="xMidYMid meet">

<g transform="translate(0.000000,65.000000) scale(0.100000,-0.100000)"
fill="#000000" stroke="none">
<path d="M196 603 c-3 -3 -6 -21 -6 -40 l0 -33 -56 0 c-98 0 -94 9 -94 -219 0
-164 3 -201 15 -211 13 -11 15 4 15 129 l0 141 250 0 250 0 0 -40 c0 -29 4
-40 15 -40 12 0 15 18 15 104 0 128 -6 136 -90 136 l-59 0 -3 35 c-2 20 -7 35
-13 35 -5 0 -11 -15 -13 -35 l-3 -35 -100 0 -99 0 0 34 c0 34 -11 52 -24 39z
m-6 -128 c0 -16 6 -25 15 -25 9 0 15 9 15 25 l0 25 100 0 100 0 0 -25 c0 -16
6 -25 15 -25 9 0 15 9 15 25 0 25 2 26 58 23 l57 -3 3 -47 3 -48 -250 0 -251
0 0 43 c0 24 3 47 7 50 3 4 30 7 60 7 50 0 53 -1 53 -25z"/>
<path d="M117 284 c-17 -17 -3 -24 49 -24 40 0 55 4 52 13 -5 13 -89 22 -101
11z"/>
<path d="M414 261 c-37 -22 -59 -77 -49 -121 3 -16 22 -43 41 -60 95 -83 232
21 178 135 -30 63 -108 84 -170 46z m109 -2 c63 -32 76 -107 28 -161 -24 -27
-36 -33 -71 -33 -35 0 -47 6 -71 33 -75 84 15 212 114 161z"/>
<path d="M460 180 c0 -29 1 -30 48 -28 43 1 44 2 10 5 -33 4 -38 8 -38 29 0
13 -4 24 -10 24 -5 0 -10 -13 -10 -30z"/>
<path d="M117 214 c-19 -19 2 -24 104 -24 84 0 110 3 107 13 -5 13 -198 23
-211 11z"/>
<path d="M92 68 c3 -9 38 -14 127 -16 96 -2 122 0 119 10 -3 9 -38 14 -127 16
-96 2 -122 0 -119 -10z"/>
</g>
</svg>
