<?xml version="1.0" standalone="no"?>
<!DOCTYPE svg PUBLIC "-//W3C//DTD SVG 20010904//EN"
 "http://www.w3.org/TR/2001/REC-SVG-20010904/DTD/svg10.dtd">
<svg version="1.0" xmlns="http://www.w3.org/2000/svg"
 width="256.000000pt" height="256.000000pt" viewBox="0 0 256.000000 256.000000"
 preserveAspectRatio="xMidYMid meet">

<g transform="translate(0.000000,256.000000) scale(0.100000,-0.100000)"
fill="#ffffff" stroke="none">
<path d="M1015 1686 c-300 -49 -593 -189 -812 -390 -71 -65 -93 -100 -93 -146
0 -50 21 -78 157 -211 172 -169 199 -174 320 -67 37 33 94 76 126 96 167 105
160 93 167 280 l5 147 75 17 c198 46 449 43 628 -8 l52 -15 0 -137 c0 -178 4
-185 132 -266 53 -34 127 -87 163 -119 73 -63 97 -73 153 -62 30 6 61 31 174
143 148 149 162 174 138 246 -15 48 -126 148 -265 241 -171 114 -340 187 -550
236 -115 26 -446 35 -570 15z"/>
</g>
</svg>
