<?xml version="1.0" standalone="no"?>
<!DOCTYPE svg PUBLIC "-//W3C//DTD SVG 20010904//EN"
 "http://www.w3.org/TR/2001/REC-SVG-20010904/DTD/svg10.dtd">
<svg version="1.0" xmlns="http://www.w3.org/2000/svg"
 width="225.000000pt" height="225.000000pt" viewBox="0 0 225.000000 225.000000"
 preserveAspectRatio="xMidYMid meet">

<g transform="translate(0.000000,225.000000) scale(0.100000,-0.100000)"
fill="#000000" stroke="none">
<path d="M0 1125 l0 -505 1125 0 1125 0 0 505 0 505 -1125 0 -1125 0 0 -505z
m471 35 c11 -6 19 -21 19 -35 0 -35 -27 -45 -119 -45 -81 0 -111 12 -111 45 0
33 30 45 111 45 44 0 89 -5 100 -10z m377 -6 c28 -19 28 -39 0 -58 -26 -19
-158 -22 -189 -6 -24 13 -25 56 -1 69 28 17 164 13 190 -5z m373 6 c11 -6 19
-21 19 -35 0 -34 -27 -45 -115 -45 -42 0 -85 5 -96 10 -24 13 -25 56 -1 69 22
14 168 14 193 1z m370 0 c11 -6 19 -21 19 -35 0 -34 -27 -45 -112 -45 -104 0
-150 36 -96 74 26 19 158 22 189 6z m383 -6 c9 -8 16 -22 16 -29 0 -33 -30
-45 -111 -45 -44 0 -89 5 -100 10 -24 13 -25 56 -1 69 29 17 178 14 196 -5z"/>
</g>
</svg>
