<?xml version="1.0" standalone="no"?>
<!DOCTYPE svg PUBLIC "-//W3C//DTD SVG 20010904//EN"
 "http://www.w3.org/TR/2001/REC-SVG-20010904/DTD/svg10.dtd">
<svg version="1.0" xmlns="http://www.w3.org/2000/svg"
 width="256.000000pt" height="256.000000pt" viewBox="0 0 256.000000 256.000000"
 preserveAspectRatio="xMidYMid meet">

<g transform="translate(0.000000,256.000000) scale(0.100000,-0.100000)"
fill="#ffffff" stroke="none">
<path d="M1902 1798 c-31 -31 -14 -61 110 -185 l123 -123 -921 0 c-702 0 -923
-3 -932 -12 -15 -15 -15 -61 0 -76 17 -17 1979 -17 1996 0 7 7 12 28 12 47 0
32 -14 49 -163 198 -165 166 -192 184 -225 151z"/>
<path d="M287 1102 c-10 -10 -17 -27 -17 -38 0 -23 323 -354 346 -354 31 0 54
20 54 48 0 21 -25 52 -112 139 l-113 113 895 0 c699 0 900 3 920 13 30 15 38
58 15 81 -15 15 -105 16 -994 16 -935 0 -979 -1 -994 -18z"/>
</g>
</svg>
