<?xml version="1.0" standalone="no"?>
<!DOCTYPE svg PUBLIC "-//W3C//DTD SVG 20010904//EN"
 "http://www.w3.org/TR/2001/REC-SVG-20010904/DTD/svg10.dtd">
<svg version="1.0" xmlns="http://www.w3.org/2000/svg"
 width="56.000000pt" height="55.000000pt" viewBox="0 0 56.000000 55.000000"
 preserveAspectRatio="xMidYMid meet">

<g transform="translate(0.000000,55.000000) scale(0.100000,-0.100000)"
fill="#ffffff" stroke="none">
<path d="M97 473 c-14 -13 -3 -89 49 -352 3 -13 14 -25 24 -28 11 -3 20 -9 20
-14 0 -5 44 -10 98 -10 69 -1 87 -4 62 -9 l-35 -7 35 -2 c20 0 40 3 45 8 6 5
27 14 48 21 28 9 37 17 37 33 0 47 -12 52 -140 57 l-121 5 -24 70 c-13 39 -27
102 -31 140 -4 39 -11 76 -17 83 -10 13 -39 16 -50 5z m113 -328 c10 -12 10
-18 0 -30 -25 -30 -61 -7 -46 30 3 8 12 15 19 15 8 0 20 -7 27 -15z"/>
<path d="M170 130 c0 -15 5 -20 18 -18 9 2 17 10 17 18 0 8 -8 16 -17 18 -13
2 -18 -3 -18 -18z"/>
</g>
</svg>
