<?xml version="1.0" standalone="no"?>
<!DOCTYPE svg PUBLIC "-//W3C//DTD SVG 20010904//EN"
 "http://www.w3.org/TR/2001/REC-SVG-20010904/DTD/svg10.dtd">
<svg version="1.0" xmlns="http://www.w3.org/2000/svg"
 width="32.000000pt" height="41.000000pt" viewBox="0 0 32.000000 41.000000"
 preserveAspectRatio="xMidYMid meet">

<g transform="translate(0.000000,41.000000) scale(0.100000,-0.100000)"
fill="#000000" stroke="none">
<path d="M17 399 c-15 -9 -17 -29 -17 -184 0 -95 3 -180 6 -189 5 -14 28 -16
148 -16 97 0 146 4 154 12 8 8 12 65 12 190 0 165 -1 178 -19 188 -25 13 -260
13 -284 -1z m223 -94 l0 -66 -34 6 c-20 4 -36 2 -41 -4 -14 -24 -25 3 -25 65
l0 64 50 0 50 0 0 -65z"/>
</g>
</svg>
