<?xml version="1.0" standalone="no"?>
<!DOCTYPE svg PUBLIC "-//W3C//DTD SVG 20010904//EN"
 "http://www.w3.org/TR/2001/REC-SVG-20010904/DTD/svg10.dtd">
<svg version="1.0" xmlns="http://www.w3.org/2000/svg"
 width="30.000000pt" height="31.000000pt" viewBox="0 0 30.000000 31.000000"
 preserveAspectRatio="xMidYMid meet">

<g transform="translate(0.000000,31.000000) scale(0.100000,-0.100000)"
fill="#000000" stroke="none">
<path d="M50 236 c0 -8 -9 -18 -20 -21 -17 -5 -20 -15 -20 -66 0 -47 3 -59 16
-59 9 0 18 -9 21 -20 5 -18 14 -20 103 -20 89 0 98 2 103 20 3 11 12 20 21 20
13 0 16 12 16 59 0 51 -3 61 -20 66 -11 3 -20 13 -20 21 0 11 -20 14 -100 14
-80 0 -100 -3 -100 -14z m150 -88 l0 -53 -50 0 -50 0 0 53 0 52 50 0 50 0 0
-52z"/>
<path d="M117 174 c-16 -16 -5 -24 34 -24 28 0 39 4 37 13 -5 13 -60 22 -71
11z"/>
<path d="M115 120 c3 -5 8 -10 11 -10 2 0 4 5 4 10 0 6 -5 10 -11 10 -5 0 -7
-4 -4 -10z"/>
<path d="M170 119 c0 -5 5 -7 10 -4 6 3 10 8 10 11 0 2 -4 4 -10 4 -5 0 -10
-5 -10 -11z"/>
</g>
</svg>
