<?xml version="1.0" encoding="UTF-8"?>
<svg version="1.1" xmlns="http://www.w3.org/2000/svg" width="512" height="512">
<path d="M0 0 C25.74 0 51.48 0 78 0 C81 23 81 23 82 31 C88.27 31 94.54 31 101 31 C101.226875 33.413125 101.45375 35.82625 101.6875 38.3125 C102.77513323 48.16585874 105.06678636 57.54435545 108 67 C108.30067383 68.00885254 108.30067383 68.00885254 108.60742188 69.03808594 C112.68542233 82.20133658 121.31239517 88.08598104 132.86328125 94.28125 C149.89833684 103.01378335 167.14598585 106.03017763 186 108 C186 117.57 186 127.14 186 137 C190.62 137.33 195.24 137.66 200 138 C202.97 138.33 205.94 138.66 209 139 C209 163.75 209 188.5 209 214 C188.29208487 217.45131919 166.66703799 213.84454048 147 207 C145.76121094 206.56945312 144.52242188 206.13890625 143.24609375 205.6953125 C136.14013923 203.02775375 129.46858464 199.8180279 122.8125 196.1875 C121.76267944 195.62059448 121.76267944 195.62059448 120.69165039 195.04223633 C116.10803693 192.46372168 111.89886736 189.49862777 107.71362305 186.3215332 C106.88611668 185.69697109 106.88611668 185.69697109 106.04189301 185.05979156 C104.69330812 184.04156365 103.34647345 183.02101837 102 182 C101.99668985 182.82346609 101.99337971 183.64693218 101.98996925 184.49535179 C101.90846901 204.60531426 101.81629007 224.71520361 101.71247292 244.82506371 C101.66251908 254.55035227 101.61607539 264.27563313 101.578125 274.00097656 C101.54500789 282.48537382 101.50507058 290.96970805 101.45720994 299.4540354 C101.43213923 303.9393282 101.41030263 308.42458024 101.39665604 312.90992355 C101.38365675 317.14689789 101.36141797 321.38373102 101.33261681 325.62062645 C101.3236784 327.16110502 101.31788377 328.70160623 101.31578636 330.2421093 C101.24614746 373.69011113 87.16024731 411.19480851 56.6640625 442.48046875 C29.14097243 469.63782827 -8.3972856 482.43974708 -46.52661133 482.30053711 C-85.84166278 481.64208751 -120.85991503 464.59423131 -148.25048828 436.88110352 C-151.28885641 433.61420058 -153.99266519 430.11405573 -156.6875 426.5625 C-157.24244141 425.85029297 -157.79738281 425.13808594 -158.36914062 424.40429688 C-160.97569463 420.99191167 -163.24559412 417.70476615 -165.07421875 413.8125 C-166.86013943 410.0341804 -169.15723762 407.40958857 -172.125 404.4375 C-196.47366547 378.87119696 -207.22256484 343.21403377 -207.25 308.5625 C-207.25067474 307.79922394 -207.25134949 307.03594788 -207.25204468 306.24954224 C-207.2364952 295.19444735 -206.83328139 284.74334046 -204 274 C-203.69121365 272.67582615 -203.38262612 271.35160592 -203.07421875 270.02734375 C-196.75375242 244.65226507 -182.38786485 222.28434414 -164 204 C-163.20335937 203.20335937 -162.40671875 202.40671875 -161.5859375 201.5859375 C-135.82981281 177.20806698 -100.32521678 164.42735358 -65.1875 163.75 C-59 164 -59 164 -46 166 C-46 174.91 -46 183.82 -46 193 C-39.92720042 192.96056498 -39.92720042 192.96056498 -33.85449219 192.90991211 C-33.09297852 192.90741455 -32.33146484 192.90491699 -31.546875 192.90234375 C-30.38430176 192.89448853 -30.38430176 192.89448853 -29.19824219 192.88647461 C-27 193 -27 193 -23 194 C-23 221.39 -23 248.78 -23 277 C-25.97 276.67 -28.94 276.34 -32 276 C-51.79516043 274.84116623 -68.08917409 279.43764641 -83.4296875 292.52734375 C-95.45104361 304.0919614 -102.8091666 320.59481659 -103.35180664 337.23828125 C-103.62839892 350.68372916 -103.62839892 350.68372916 -98.69921875 362.734375 C-96.86957573 364.20535351 -95.15968769 365.07018592 -93 366 C-92.01128906 366.43699219 -91.02257812 366.87398438 -90.00390625 367.32421875 C-72.11582525 374.67750529 -55.71630728 374.48116355 -37.73828125 367.78515625 C-22.49501901 360.91074387 -10.9307512 347.43739652 -5 332 C-1.34405636 321.70242541 -0.85063486 311.9650174 -0.84178162 301.11730957 C-0.83684364 299.82823873 -0.83190566 298.53916789 -0.82681805 297.2110343 C-0.81330316 293.64901807 -0.80583798 290.08701133 -0.79939139 286.52497625 C-0.79135805 282.67776225 -0.77767045 278.8305678 -0.76467896 274.98336792 C-0.74295769 268.32313146 -0.72479737 261.66289299 -0.70907402 255.00263977 C-0.68633568 245.37310015 -0.65819841 235.74358223 -0.62875474 226.11406106 C-0.58112736 210.48978728 -0.53785006 194.86550461 -0.49731445 179.24121094 C-0.4579348 164.0660737 -0.41650268 148.89094434 -0.37231445 133.71582031 C-0.36822804 132.31209808 -0.36822804 132.31209808 -0.36405908 130.88001782 C-0.3503792 126.18518442 -0.336659 121.49035114 -0.32291877 116.79551792 C-0.20903026 77.8636941 -0.10300659 38.93185443 0 0 Z M-53 194 C-53 194.33 -53 194.66 -53 195 C-51.02 195 -49.04 195 -47 195 C-47 194.67 -47 194.34 -47 194 C-48.98 194 -50.96 194 -53 194 Z M-62 195 C-62 195.33 -62 195.66 -62 196 C-60.35 196 -58.7 196 -57 196 C-57 195.67 -57 195.34 -57 195 C-58.65 195 -60.3 195 -62 195 Z M-45 406 C-45 406.33 -45 406.66 -45 407 C-42.03 407 -39.06 407 -36 407 C-36 406.67 -36 406.34 -36 406 C-38.97 406 -41.94 406 -45 406 Z " fill="#000000" transform="translate(255,16)"/>
<path d="M0 0 C8.00994957 0.53399664 16.02137001 1.11348556 24 2 C24 26.75 24 51.5 24 77 C3.29208487 80.45131919 -18.33296201 76.84454048 -38 70 C-39.23878906 69.56945312 -40.47757812 69.13890625 -41.75390625 68.6953125 C-48.85986077 66.02775375 -55.53141536 62.8180279 -62.1875 59.1875 C-63.23732056 58.62059448 -63.23732056 58.62059448 -64.30834961 58.04223633 C-68.89196307 55.46372168 -73.10113264 52.49862777 -77.28637695 49.3215332 C-77.83804787 48.90515846 -78.38971878 48.48878372 -78.95810699 48.05979156 C-80.30669188 47.04156365 -81.65352655 46.02101837 -83 45 C-83.00331015 45.82346609 -83.00662029 46.64693218 -83.01003075 47.49535179 C-83.09153099 67.60531426 -83.18370993 87.71520361 -83.28752708 107.82506371 C-83.33748092 117.55035227 -83.38392461 127.27563313 -83.421875 137.00097656 C-83.45499211 145.48537382 -83.49492942 153.96970805 -83.54279006 162.4540354 C-83.56786077 166.9393282 -83.58969737 171.42458024 -83.60334396 175.90992355 C-83.61634325 180.14689789 -83.63858203 184.38373102 -83.66738319 188.62062645 C-83.6763216 190.16110502 -83.68211623 191.70160623 -83.68421364 193.2421093 C-83.75385254 236.69011113 -97.83975269 274.19480851 -128.3359375 305.48046875 C-155.85902757 332.63782827 -193.3972856 345.43974708 -231.52661133 345.30053711 C-270.83104935 344.64226526 -305.84947461 327.60170721 -333.23730469 299.89868164 C-336.34793236 296.54807895 -339.113954 292.95235115 -341.875 289.3125 C-342.45507812 288.56677734 -343.03515625 287.82105469 -343.6328125 287.05273438 C-344.18453125 286.33021484 -344.73625 285.60769531 -345.3046875 284.86328125 C-345.79952637 284.21657471 -346.29436523 283.56986816 -346.80419922 282.90356445 C-348.04595378 280.92684736 -348.56988867 279.28136372 -349 277 C-344.71153094 280.16244645 -340.52626156 283.39492543 -336.4375 286.8125 C-308.3969042 309.21936879 -271.24787647 319.18727924 -235.7421875 315.49609375 C-207.3246237 312.09758193 -180.525763 301.05045692 -159 282 C-158.50902832 281.57460938 -158.01805664 281.14921875 -157.51220703 280.7109375 C-150.21487731 274.37871609 -143.84232592 267.73682772 -138 260 C-137.40832031 259.22398437 -136.81664062 258.44796875 -136.20703125 257.6484375 C-116.62723694 230.85503476 -108.91419102 201.00195275 -108.79467773 168.25927734 C-108.78508284 166.58294441 -108.77507185 164.90661382 -108.76467896 163.23028564 C-108.73779824 158.70624377 -108.71669827 154.18219164 -108.69667697 149.65811491 C-108.67471276 144.92022076 -108.64737543 140.18235761 -108.62062073 135.44448853 C-108.57083424 126.48459884 -108.52584368 117.52469182 -108.48259836 108.56476843 C-108.43310548 98.35914795 -108.37823228 88.15355858 -108.32291877 77.94796824 C-108.2093145 56.96534119 -108.10242906 35.98268439 -108 15 C-104.94292563 16.46170584 -102.34378766 18.17785856 -99.63745117 20.22363281 C-77.76564409 36.64554972 -50.15110146 47.52042268 -22.6328125 48.31640625 C-21.38902832 48.35451416 -20.14524414 48.39262207 -18.86376953 48.43188477 C-17.29997559 48.47498779 -15.73618164 48.51809082 -14.125 48.5625 C-9.13375 48.706875 -4.1425 48.85125 1 49 C0.67 32.83 0.34 16.66 0 0 Z " fill="#FE004E" transform="translate(440,153)"/>
<path d="M0 0 C25.74 0 51.48 0 78 0 C81 23 81 23 82 31 C62.86 31 43.72 31 24 31 C24.01571045 40.46896973 24.0314209 49.93793945 24.04760742 59.69384766 C24.09579705 90.02005577 24.12914441 120.34626405 24.15319599 150.67250053 C24.15694793 155.3861593 24.16083092 160.09981796 24.16479492 164.81347656 C24.16558185 165.75184787 24.16636878 166.69021918 24.16717956 167.65702598 C24.18021958 182.83422361 24.20386567 198.01138702 24.23145839 213.18856438 C24.25955169 228.77150085 24.27618455 244.35441944 24.28226548 259.93738019 C24.28637379 269.54637343 24.29933125 279.1552699 24.3237494 288.76423334 C24.33965507 295.36098786 24.34438946 301.95769266 24.34050413 308.55446495 C24.33859008 312.35566579 24.34144293 316.15669802 24.35761642 319.95786858 C24.37507391 324.09129377 24.36892448 328.2243646 24.36076355 332.3578186 C24.36950207 333.54268754 24.3782406 334.72755647 24.38724393 335.94833052 C24.28335869 355.51689545 17.8880623 373.84219075 4.375 388.1875 C-9.44899329 401.36218452 -25.63277468 406.60095548 -44.40625 406.27734375 C-61.00288876 405.57296782 -74.34374905 398.61739678 -86 387 C-86.7115625 386.31164062 -87.423125 385.62328125 -88.15625 384.9140625 C-93.24766578 379.64640541 -101 369.76247697 -101 362 C-97.73327211 363.24719209 -94.73752059 364.6739228 -91.6875 366.375 C-75.94285353 374.27075277 -59.49829546 374.81633204 -42.87646484 369.62841797 C-28.45955238 364.80027164 -15.78744622 353.76623558 -8.57421875 340.34765625 C-2.39704725 327.35555219 -0.85340436 315.35842881 -0.84178162 301.11730957 C-0.83684364 299.82823873 -0.83190566 298.53916789 -0.82681805 297.2110343 C-0.81330316 293.64901807 -0.80583798 290.08701133 -0.79939139 286.52497625 C-0.79135805 282.67776225 -0.77767045 278.8305678 -0.76467896 274.98336792 C-0.74295769 268.32313146 -0.72479737 261.66289299 -0.70907402 255.00263977 C-0.68633568 245.37310015 -0.65819841 235.74358223 -0.62875474 226.11406106 C-0.58112736 210.48978728 -0.53785006 194.86550461 -0.49731445 179.24121094 C-0.4579348 164.0660737 -0.41650268 148.89094434 -0.37231445 133.71582031 C-0.36959018 132.78000549 -0.36686591 131.84419067 -0.36405908 130.88001782 C-0.3503792 126.18518442 -0.336659 121.49035114 -0.32291877 116.79551792 C-0.20903026 77.8636941 -0.10300659 38.93185443 0 0 Z " fill="#00F4EC" transform="translate(255,16)"/>
<path d="M0 0 C0 9.24 0 18.48 0 28 C-6.1565625 28.8353125 -6.1565625 28.8353125 -12.4375 29.6875 C-40.65912741 33.77776219 -66.41389335 43.99232569 -88 63 C-88.85207031 63.73089844 -89.70414062 64.46179688 -90.58203125 65.21484375 C-116.60580316 87.96065975 -133.30112028 120.62945745 -137 155 C-137.28439664 160.2514487 -137.34086816 165.49225309 -137.3125 170.75 C-137.30976578 171.80515305 -137.30976578 171.80515305 -137.30697632 172.88162231 C-137.26051029 183.54413804 -136.70015168 193.63490162 -134 204 C-133.83371094 204.67417969 -133.66742188 205.34835937 -133.49609375 206.04296875 C-130.07434159 219.75532371 -124.37582304 232.42656015 -118 245 C-134.77730722 238.06691186 -145.52999535 211.29741512 -152 196 C-158.97274591 178.60717635 -161.23529671 161.13325629 -161.25 142.5625 C-161.25067474 141.79922394 -161.25134949 141.03594788 -161.25204468 140.24954224 C-161.2364952 129.19444735 -160.83328139 118.74334046 -158 108 C-157.69121365 106.67582615 -157.38262612 105.35160592 -157.07421875 104.02734375 C-150.75375242 78.65226507 -136.38786485 56.28434414 -118 38 C-117.20335937 37.20335937 -116.40671875 36.40671875 -115.5859375 35.5859375 C-84.98608243 6.62353287 -41.25717063 -6.34725702 0 0 Z " fill="#00F6EE" transform="translate(209,182)"/>
<path d="M0 0 C0.83595703 -0.00128906 1.67191406 -0.00257813 2.53320312 -0.00390625 C3.41298828 -0.00003906 4.29277344 0.00382813 5.19921875 0.0078125 C6.06740234 0.00394531 6.93558594 0.00007812 7.83007812 -0.00390625 C9.08981445 -0.00197266 9.08981445 -0.00197266 10.375 0 C11.14368408 0.00112793 11.91236816 0.00225586 12.7043457 0.00341797 C14.88671875 0.1328125 14.88671875 0.1328125 18.88671875 1.1328125 C18.88671875 28.5228125 18.88671875 55.9128125 18.88671875 84.1328125 C15.91671875 83.8028125 12.94671875 83.4728125 9.88671875 83.1328125 C-9.90844168 81.97397873 -26.20245534 86.57045891 -41.54296875 99.66015625 C-53.53998219 111.20135611 -60.93114506 127.70338071 -61.46337891 144.3215332 C-61.56147008 152.93336139 -60.33405435 160.7916945 -58.11328125 169.1328125 C-61.7450463 169.1328125 -62.69387607 168.00882704 -65.23828125 165.57836914 C-78.62873126 152.11887463 -85.69795559 136.37704044 -86.42578125 117.1953125 C-86.22500125 99.70737466 -79.0621686 83.82440949 -67.11328125 71.1328125 C-55.22631875 59.5457013 -39.67362126 52.74913655 -23.17578125 52.8828125 C-21.74975586 52.87121094 -21.74975586 52.87121094 -20.29492188 52.859375 C-19.35970703 52.86195313 -18.42449219 52.86453125 -17.4609375 52.8671875 C-16.62570557 52.86944336 -15.79047363 52.87169922 -14.92993164 52.87402344 C-11.18158074 53.21841556 -7.7486814 54.15756163 -4.11328125 55.1328125 C-4.12802994 54.458517 -4.14277863 53.7842215 -4.15797424 53.0894928 C-4.30989339 46.09859858 -4.45476312 39.10758399 -4.59545898 32.11645508 C-4.64897127 29.50411234 -4.70430738 26.89180632 -4.76147461 24.27954102 C-4.84312883 20.53409752 -4.91831552 16.78857279 -4.9921875 13.04296875 C-5.01922256 11.86694595 -5.04625763 10.69092316 -5.07411194 9.47926331 C-5.09420822 8.39821823 -5.1143045 7.31717316 -5.13500977 6.20336914 C-5.15499527 5.24628555 -5.17498077 4.28920197 -5.1955719 3.30311584 C-5.05078884 -0.51533924 -3.36364117 0.00495747 0 0 Z " fill="#FE004E" transform="translate(213.11328125,208.8671875)"/>
<path d="M0 0 C3.58749256 1.6229133 6.57327605 3.81099042 9.75 6.125 C29.75021419 20.20176596 49.97507596 24.39157968 74 27 C74 36.57 74 46.14 74 56 C55.02052791 52.20410558 38.29859066 44.13867549 24 31 C23.51047852 30.55285645 23.02095703 30.10571289 22.51660156 29.64501953 C13.14508507 20.98958911 5.5489701 11.58196252 0 0 Z " fill="#00F5ED" transform="translate(367,97)"/>
<path d="M0 0 C6.27 0 12.54 0 19 0 C19.226875 2.413125 19.45375 4.82625 19.6875 7.3125 C21.06538866 19.9532928 24.0655364 32.70339776 29.3984375 44.28515625 C29.59695313 44.85105469 29.79546875 45.41695312 30 46 C29.67 46.66 29.34 47.32 29 48 C14.69540677 35.06499548 4.68394807 18.73579229 0 0 Z " fill="#FD004E" transform="translate(337,47)"/>
</svg>
