<?xml version="1.0" standalone="no"?>
<!DOCTYPE svg PUBLIC "-//W3C//DTD SVG 20010904//EN"
 "http://www.w3.org/TR/2001/REC-SVG-20010904/DTD/svg10.dtd">
<svg version="1.0" xmlns="http://www.w3.org/2000/svg"
 width="100.000000pt" height="96.000000pt" viewBox="0 0 100.000000 96.000000"
 preserveAspectRatio="xMidYMid meet">

<g transform="translate(0.000000,96.000000) scale(0.100000,-0.100000)"
fill="#ffffff" stroke="none">
<path d="M383 915 c-78 -21 -130 -51 -191 -108 -126 -120 -172 -288 -122 -450
111 -360 585 -429 795 -117 120 179 90 424 -70 573 -109 100 -271 140 -412
102z m74 -267 l67 -91 86 92 c66 72 90 92 107 90 19 -4 10 -17 -73 -106 -62
-67 -93 -107 -88 -115 4 -7 54 -75 111 -151 l104 -137 -85 0 -84 0 -74 99 -74
99 -89 -99 c-73 -79 -95 -98 -119 -98 -27 -1 -26 1 36 66 36 38 84 89 107 115
l42 47 -100 136 c-56 74 -101 138 -101 140 0 3 36 5 80 5 l79 0 68 -92z"/>
<path d="M300 703 c0 -3 73 -104 163 -224 154 -207 164 -218 195 -219 19 0 32
4 30 10 -2 5 -75 106 -163 225 -151 203 -162 215 -192 215 -18 0 -33 -3 -33
-7z"/>
</g>
</svg>
